# xmcd CD database file
#
# Track frame offsets:
#	150
#	17209
#	40882
#	63395
#	92160
#	112810
#	138524
#	158056
#	181900
#	196744
#	212807
#	234359
#	250613
#
# Disc length: 3733 seconds
#
# Revision: 5
# Processed by: cddbd v1.5.2PL0 Copyright (c) Steve Scherf et al.
# Submitted via: CDex 1.51
#
DISCID=a50e930d
DTITLE=Miguel Bose - Papito
DYEAR=2008
DGENRE=Blues
TTITLE0=Morenamia
TTITLE1=Si tu no vuelves
TTITLE2=Bambu
TTITLE3=Nada particular
TTITLE4=Amante bandido
TTITLE5=Sevilla
TTITLE6=Nena
TTITLE7=Te amare
TTITLE8=Los chicos no lloran
TTITLE9=Como un lobo
TTITLE10=Olvida me tu
TTITLE11=Hay dias
TTITLE12=Lo que hay es lo que ves
EXTD=YEAR: 2008
EXTT0=
EXTT1=
EXTT2=
EXTT3=
EXTT4=
EXTT5=
EXTT6=
EXTT7=
EXTT8=
EXTT9=
EXTT10=
EXTT11=
EXTT12=
PLAYORDER=
